<?xml version="1.0" encoding="iso-8859-1"?>
<!-- Generator: Adobe Illustrator 19.0.0, SVG Export Plug-In . SVG Version: 6.00 Build 0)  -->
<svg version="1.1" id="Layer_1" xmlns="http://www.w3.org/2000/svg" xmlns:xlink="http://www.w3.org/1999/xlink" x="0px" y="0px"
	 viewBox="0 0 511.999 511.999" style="enable-background:new 0 0 511.999 511.999;" xml:space="preserve">
<path style="fill:#EFF2FA;" d="M127.705,60.562L7.516,84.835V404.77c0,11.81,9.574,21.385,21.385,21.385h453.595
	c11.793,0,21.36-9.547,21.385-21.34l0.603-320.915L384.205,60.08"/>
<g>
	<path style="fill:#E4EAF6;" d="M166.575,13.556l89.38,46.765l-55.974,72.246L127.69,52.546l16.156-32.464
		C148.038,11.658,158.551,8.639,166.575,13.556z"/>
	<path style="fill:#E4EAF6;" d="M345.159,13.22l-89.204,47.101l56.245,72.035l71.99-80.292l-16.278-32.403
		C363.687,11.252,353.163,8.273,345.159,13.22z"/>
	<path style="fill:#E4EAF6;" d="M176.311,333.002c0.017,8.817-7.184,16.045-16.001,16.061l-96.187,0.18
		c-8.817,0.017-16.045-7.184-16.061-16.001l-0.18-96.187c-0.017-8.817,7.184-16.045,16.001-16.061l96.187-0.18
		c8.817-0.017,16.045,7.184,16.061,16.001L176.311,333.002z"/>
	<path style="fill:#E4EAF6;" d="M336.442,236.514l0.18,96.187c0.017,8.817,7.244,16.017,16.061,16.001l96.188-0.18
		c8.817-0.017,16.017-7.244,16.001-16.061l-0.18-96.187L336.442,236.514z"/>
</g>
<g>
	<path style="fill:#707487;" d="M408.582,236.378l-0.09-48.094c-0.008-4.427-3.604-8.009-8.031-8.001l-16.031,0.03
		c-4.427,0.008-8.009,3.604-8.001,8.031l0.09,48.094"/>
	<path style="fill:#707487;" d="M288.107,108.354l0.03,16.031c0.017,8.817-7.184,16.045-16.001,16.061l-32.063,0.06
		c-8.817,0.017-16.045-7.184-16.061-16.001l-0.03-16.031l31.368-41.362L288.107,108.354z"/>
	<polyline style="fill:#707487;" points="280.152,140.432 311.135,447.295 257.455,501.178 203.571,447.497 232.058,140.522 	"/>
</g>
<path d="M505.943,76.529L391.47,53.858c0.419-1.701,0.255-3.533-0.566-5.167l-16.278-32.403c-4.022-8.007-12.092-12.98-21.06-12.98
	c-4.266,0-8.451,1.166-12.121,3.375l-85.507,45.149L170.262,7.004c-3.652-2.178-7.809-3.328-12.044-3.328
	c-9.006,0-17.091,5.004-21.1,13.059l-16.156,32.464c-0.816,1.638-0.972,3.469-0.547,5.169L6.029,77.469
	c-4.068,0.822-6.7,4.785-5.878,8.853c0.72,3.566,3.855,6.029,7.358,6.029c0.493,0,0.994-0.049,1.496-0.15l120.189-24.273
	c0.616-0.124,1.193-0.329,1.736-0.586l63.476,70.263c1.428,1.58,3.455,2.477,5.576,2.477c0.094,0,0.189-0.002,0.285-0.005
	c2.222-0.084,4.294-1.148,5.657-2.907l10.575-13.65l0.002,1c0.013,6.954,3.057,13.206,7.874,17.51l-28.283,304.772
	c-0.207,2.23,0.592,4.437,2.178,6.018l53.883,53.681c1.467,1.461,3.385,2.191,5.303,2.191c1.928,0,3.855-0.737,5.323-2.211
	l53.681-53.883c1.589-1.595,2.38-3.818,2.153-6.059l-23.68-234.525c0.031-0.721-0.041-1.444-0.216-2.148l-4.589-45.453
	c-0.013-0.235-0.036-0.469-0.071-0.702l-2.203-21.818c0.314-0.283,0.621-0.573,0.921-0.875c4.448-4.465,6.89-10.377,6.879-16.648
	l-0.002-1l10.626,13.61c1.369,1.753,3.445,2.81,5.668,2.886c0.085,0.003,0.17,0.004,0.256,0.004c2.13,0,4.167-0.906,5.594-2.498
	l63.211-70.501c0.544,0.255,1.122,0.458,1.738,0.579l120.279,23.82c0.493,0.098,0.984,0.145,1.468,0.145
	c3.514,0,6.655-2.478,7.363-6.056C512.661,81.29,510.015,77.336,505.943,76.529z M278.126,130.413
	c-1.614,1.62-3.746,2.515-6.004,2.52l-10.83,0.02l-29.406-29.296l9.381-12.108l37.145,37.006c0.231,0.23,0.477,0.436,0.728,0.629
	C278.843,129.618,278.507,130.031,278.126,130.413z M234.047,130.495c-1.614-1.608-2.507-3.731-2.518-5.979l8.507,8.476
	C237.812,133.026,235.661,132.104,234.047,130.495z M199.539,120.868l-62.839-69.559l13.874-27.878
	c1.451-2.916,4.381-4.726,7.645-4.726c1.555,0,3.087,0.436,4.431,1.258c0.144,0.088,0.293,0.172,0.442,0.25l81.425,42.603
	L199.539,120.868z M240.044,148.022c0.014,0,0.031,0,0.045,0l15.006-0.028l20.312,20.235l2.343,23.205l-39.24-39.093l0.404-4.348
	C239.287,148.012,239.664,148.022,240.044,148.022z M303.301,444.512l-6.199,6.222l-78.983-78.686l1.596-17.199l82.217,81.91
	c0.205,0.204,0.421,0.391,0.643,0.567L303.301,444.512z M277.101,470.81l-62.38-62.145l1.596-17.198l70.178,69.914L277.101,470.81z
	 M291.222,324.865l-62.907-62.671l1.596-17.198l59.202,58.98L291.222,324.865z M221.708,335.618
	c-0.062-0.061-0.128-0.114-0.191-0.172l1.597-17.215l74.979,74.7l2.109,20.889L221.708,335.618z M225.325,299.219
	c-0.132-0.132-0.273-0.251-0.413-0.372l1.599-17.234l64.744,64.502c0.674,0.671,1.446,1.18,2.266,1.543l2.189,21.684
	L225.325,299.219z M233.528,227.385c-0.561-0.559-1.189-1.009-1.858-1.355l1.638-17.652l51.147,50.955
	c0.053,0.053,0.11,0.097,0.164,0.148l2.111,20.906L233.528,227.385z M235.84,189.685c-0.233-0.232-0.483-0.44-0.737-0.636
	l1.604-17.288l43.424,43.261l2.109,20.889L235.84,189.685z M257.435,490.551l-46.054-45.881l1.539-16.585l53.574,53.373
	L257.435,490.551z M280.595,109.514l-30.052-29.938l5.435-7.014l25.38,32.505c-0.487,0.998-0.767,2.116-0.766,3.302L280.595,109.514
	z M312.598,120.655l-45.194-57.883l81.263-42.909c0.15-0.079,0.298-0.163,0.441-0.252c1.351-0.835,2.892-1.275,4.458-1.275
	c3.251,0,6.174,1.8,7.63,4.697l13.978,27.827L312.598,120.655z"/>
<path d="M160.055,213.299l-96.187,0.181c-12.983,0.024-23.526,10.607-23.502,23.59l0.18,96.187
	c0.024,12.959,10.588,23.502,23.547,23.502c0.004,0,0.039,0,0.043,0l96.187-0.181c12.983-0.024,23.526-10.607,23.502-23.59
	l-0.181-96.187C183.62,223.842,173.057,213.299,160.055,213.299z M63.895,228.51l96.204-0.181c4.687,0,8.508,3.813,8.517,8.501
	l0.05,26.854l-56.57,21.336l-56.65-21.123l-0.05-26.854C55.386,232.346,59.199,228.519,63.895,228.51z M160.295,341.549
	l-96.187,0.181l-0.016,7.515v-7.515c-4.688,0-8.509-3.813-8.518-8.501l-0.1-53.281l54.01,20.138
	c0.847,0.316,1.735,0.474,2.625,0.474c0.899,0,1.798-0.161,2.651-0.483l53.934-20.341l0.1,53.281
	C168.805,337.712,164.991,341.54,160.295,341.549z"/>
<path d="M112.061,276.511c1.984,0,3.918-0.802,5.32-2.204c1.393-1.393,2.194-3.326,2.194-5.31c0-1.974-0.802-3.918-2.194-5.31
	c-1.403-1.403-3.337-2.204-5.32-2.204c-1.974,0-3.908,0.802-5.31,2.204c-1.403,1.393-2.204,3.336-2.204,5.31
	c0,1.984,0.802,3.918,2.204,5.31C108.154,275.71,110.087,276.511,112.061,276.511z"/>
<path d="M464.693,228.758c-0.005,0-0.01,0-0.015,0l-24.548,0.046l-0.001-0.501c-0.012-6.289-2.472-12.198-6.929-16.636
	c-4.446-4.428-10.344-6.865-16.616-6.865c-0.015,0-0.03,0-0.045,0l-0.501,0.001l-0.031-16.532c-0.008-4.148-1.63-8.046-4.57-10.973
	c-2.932-2.921-6.823-4.528-10.959-4.528c-0.01,0-0.02,0-0.03,0l-16.031,0.03c-4.148,0.008-8.046,1.63-10.973,4.57
	c-2.928,2.94-4.536,6.842-4.528,10.99l0.076,40.579L336.428,229c-4.15,0.008-7.509,3.379-7.501,7.529l0.18,96.188
	c0.024,12.958,10.587,23.502,23.546,23.502c0.005,0,0.04,0,0.045,0l96.188-0.181c12.983-0.024,23.526-10.607,23.502-23.59
	l-0.181-96.187C472.198,232.113,468.836,228.758,464.693,228.758z M416.567,219.831c0.005,0,0.011,0,0.016,0
	c4.689,0,8.508,3.809,8.517,8.501l0.001,0.501l-9.018,0.017l-0.017-9.018L416.567,219.831z M383.944,188.33
	c0-0.051,0-0.207,0.146-0.355c0.146-0.146,0.303-0.147,0.355-0.147l16.031-0.03c0,0,0,0,0.001,0c0.276,0,0.501,0.224,0.501,0.5
	l0.045,24.042c0,0.002,0,0.003,0,0.005s0,0.003,0,0.005l0.031,16.527l-17.033,0.032L383.944,188.33z M448.857,341.007l-96.187,0.181
	l-0.016,7.515v-7.515c-4.687,0-8.508-3.813-8.517-8.501l-0.166-88.673l32.548-0.061l0,0c0.005,0,0.01,0,0.015,0h0.001l32.044-0.06
	c0.001,0,0.001,0,0.002,0c0.005,0,0.01,0,0.015,0c0.001,0,0.002,0,0.003,0l16.529-0.031l0.061,32.563
	c0.008,4.146,3.371,7.501,7.515,7.501c0.005,0,0.01,0,0.015,0c4.15-0.008,7.509-3.379,7.501-7.529l-0.061-32.563l17.033-0.032
	l0.167,88.673C457.367,337.17,453.553,340.998,448.857,341.007z"/>
<g>
</g>
<g>
</g>
<g>
</g>
<g>
</g>
<g>
</g>
<g>
</g>
<g>
</g>
<g>
</g>
<g>
</g>
<g>
</g>
<g>
</g>
<g>
</g>
<g>
</g>
<g>
</g>
<g>
</g>
</svg>
